<?xml version="1.0" standalone="no"?><!DOCTYPE svg PUBLIC "-//W3C//DTD SVG 1.1//EN" "http://www.w3.org/Graphics/SVG/1.1/DTD/svg11.dtd"><svg t="1702705893899" class="icon" viewBox="0 0 1024 1024" version="1.1" xmlns="http://www.w3.org/2000/svg" p-id="4515" xmlns:xlink="http://www.w3.org/1999/xlink" width="128" height="128"><path d="M770.93656251 647.958125C817.3071875 589.775 842.9375 517.8153125 842.93749999 441.786875 842.9375 258.9565625 694.7684375 110.75 512 110.75S181.0625 258.9565625 181.06250001 441.786875c0 76.0284375 25.6303125 147.988125 72.00093748 206.17125l0.49312501 0.61875001 251.5846875 264.05624999 4.2121875 4.05c0.86812499 0.834375 1.888125 1.254375 3.1171875 1.254375 1.44375001 0 2.67562501-0.613125 3.57375-1.75875l1.66125-2.116875 252.75-265.5 0.48093751-0.60375zM560.301875 950.8971875c-11.12343751 14.180625-28.41375 23.2903125-47.83125 23.2903125-16.34718749 0-31.186875-6.4575-42.10875-16.96125l-0.4265625 0L208.848125 683.196875l0.226875-0.1809375-37.3265625-56.25C141.81875 571.80125 124.8125 508.78062501 124.8125 441.78687499 124.8125 227.894375 298.161875 54.5 512 54.5s387.1875 173.394375 387.1875 387.28687499c0 66.99375-17.00625 130.014375-46.9359375 184.97906251l-37.3265625 56.25 0.2240625 0.178125-254.8471875 267.703125z" fill="#6d3f2f" p-id="4516"></path><path d="M513.40625 516.6875c68.6371875 0 124.21875-55.43718751 124.21875-123.75 0-68.3128125-55.5815625-123.75-124.21875-123.75S389.1875 324.6246875 389.1875 392.9375c0 68.3128125 55.5815625 123.75 124.21875 123.75z m0 56.25C413.7359375 572.9375 332.9375 492.3490625 332.9375 392.9375s80.7984375-180 180.46875-180S693.875 293.5259375 693.875 392.9375s-80.7984375 180-180.46875 180z" fill="#6d3f2f" p-id="4517"></path></svg>