<?xml version="1.0" standalone="no"?><!DOCTYPE svg PUBLIC "-//W3C//DTD SVG 1.1//EN" "http://www.w3.org/Graphics/SVG/1.1/DTD/svg11.dtd"><svg t="1702705850771" class="icon" viewBox="0 0 1024 1024" version="1.1" xmlns="http://www.w3.org/2000/svg" p-id="4670" xmlns:xlink="http://www.w3.org/1999/xlink" width="128" height="128"><path d="M766.09578781 780.61097562H257.04032375c-8.23472062 0-14.97221906-6.73749844-14.97221906-14.97221907V256.5832925c0-8.23472062 6.73749844-14.97221906 14.97221906-14.97221906h509.05546406c8.23472062 0 14.97221906 6.73749844 14.97221906 14.97221906v509.05546407c0 8.23472062-6.73749844 14.97221906-14.97221906 14.97221905zM182.17922656 241.61107344v538.99990218c0 33.03245906 26.85641906 59.88887812 59.88887813 59.88887813h538.99990218c33.03245906 0 59.88887812-26.85641906 59.88887813-59.88887813V241.61107344c0-33.03245906-26.85641906-59.88887812-59.88887813-59.88887813H242.06810469c-33.03245906 0-59.88887812 26.85641906-59.88887813 59.88887813z" p-id="4671" fill="#6d3f2f"></path><path d="M952.3127675 570.90632656l16.75017094-14.69149125c27.23072438-23.86197469 27.23072438-66.25207125 0-90.11404594L952.3127675 451.50287563c-27.23072438-23.86197469-27.23072438-66.25207125 0-90.11404594l16.75017094-14.69149032c27.23072438-23.86197469 27.23072438-66.25207125 0-90.11404687L952.3127675 241.89180219c-27.23072438-23.86197469-27.23072438-66.25207125 0-90.11404594l7.48611-6.2696175c12.16492875-10.19982469 18.34096875-24.79773844 18.34096875-39.30207562 0-14.22360844-5.80173469-28.35364031-17.49878156-38.55346501-1.68437437-1.49722219-3.27517312-3.08802-4.86597094-4.86597187l-0.56145844-0.65503406c-20.68037812-23.76839813-57.64304531-23.39409281-77.85554156 0.74861062l-6.26961656 7.48611c-23.86197469 27.23072438-66.25207125 27.23072438-90.11404688 0l-14.69149031-16.8437475c-23.86197469-27.23072438-66.25207125-27.23072438-90.11404594 0l-14.69149031 16.8437475c-23.86197469 27.23072438-66.25207125 27.23072438-90.11404594 0l-14.69149125-16.8437475c-23.86197469-27.23072438-66.25207125-27.23072438-90.11404594 0l-14.69149031 16.8437475c-23.86197469 27.23072438-66.25207125 27.23072438-90.11404594 0l-14.69149031-16.8437475c-23.86197469-27.23072438-66.25207125-27.23072438-90.11404687 0l-14.69149032 16.8437475c-23.86197469 27.23072438-66.25207125 27.23072438-90.11404593 0l-6.26961657-7.48611C125.56552156 38.73749844 88.60285437 38.36319312 67.92247625 62.03801563l-0.655035 0.74861062c-1.49722219 1.68437437-3.08802 3.27517312-4.86597094 4.86597187-23.58124594 20.58680156-23.20694062 57.54946875 0.84218719 77.76196501l7.48611 6.26961656c27.23072438 23.86197469 27.23072438 66.25207125 0 90.11404593L53.97959657 256.48971594c-27.23072438 23.86197469-27.23072438 66.25207125 0 90.11404687l16.84374749 14.69149032c27.23072438 23.86197469 27.23072438 66.25207125 0 90.11404593l-16.84374749 14.69149032c-27.23072438 23.86197469-27.23072438 66.25207125 0 90.11404593l16.84374749 14.69149125c27.23072438 23.86197469 27.23072438 66.25207125 0 90.11404594l-16.75017093 14.69149031c-27.23072438 23.86197469-27.23072438 66.34564781 0 90.11404594l16.65659437 14.59791468c27.32430094 23.86197469 27.32430094 66.25207125 0 90.11404595l-8.04756844 6.73749843c-23.76839813 20.02534406-24.14270438 56.52012844-0.74861062 77.01335438l1.2164925 1.12291594c1.68437437 1.49722219 3.27517312 3.08802 4.77239531 4.77239531l0.28072875 0.37430531c20.493225 23.39409281 57.08158687 23.0197875 77.10693094-0.74861062l6.73749844-7.95399188c23.86197469-27.32430094 66.25207125-27.32430094 90.11404687 0l18.99600281 21.61614188c21.61614188 24.70416188 59.98245469 24.70416188 81.59859657 0l18.99600375-21.61614188c23.86197469-27.32430094 66.25207125-27.32430094 90.11404593 0l18.99600375 21.61614188c21.61614188 24.70416188 59.98245469 24.70416188 81.59859657 0L571.45693344 951.85573625c23.86197469-27.32430094 66.25207125-27.32430094 90.11404687 0l18.99600282 21.61614188c21.61614188 24.70416188 59.98245469 24.70416188 81.59859656-1e-8l18.99600374-21.61614187c23.86197469-27.32430094 66.25207125-27.32430094 90.11404595 0l6.36319312 7.48611c10.19982469 12.16492875 24.70416188 18.24739219 39.2085 18.24739219 14.13003188 0 28.35364031-5.80173469 38.553465-17.49878155 1.49722219-1.68437437 3.08802-3.36874969 4.86597188-4.86597095l1.12291593-1.02934031c23.48766937-20.493225 23.30051625-57.08158687-0.37430532-77.48123625l-7.39253344-6.36319313c-27.69860625-23.76839813-27.88575844-66.5328-0.46788186-90.58192781l16.1887125-14.22360844c27.23072438-23.86197469 27.23072438-66.25207125 0-90.11404594L952.3127675 661.11394906c-27.23072438-23.86197469-27.23072438-66.34564781 0-90.2076225zM840.956885 900.38873188H182.17922656c-33.03245906 0-59.88887812-26.85641906-59.88887812-59.88887813V181.72219531c0-33.03245906 26.85641906-59.88887812 59.88887812-59.88887812h658.77765844c33.03245906 0 59.88887812 26.85641906 59.88887813 59.88887812v658.77765844c0 33.03245906-26.85641906 59.88887812-59.88887813 59.88887812z" p-id="4672" fill="#6d3f2f"></path></svg>