<?xml version="1.0" standalone="no"?><!DOCTYPE svg PUBLIC "-//W3C//DTD SVG 1.1//EN" "http://www.w3.org/Graphics/SVG/1.1/DTD/svg11.dtd"><svg t="1702705952376" class="icon" viewBox="0 0 1024 1024" version="1.1" xmlns="http://www.w3.org/2000/svg" p-id="4851" xmlns:xlink="http://www.w3.org/1999/xlink" width="128" height="128"><path d="M962.61420373 716.19290226l-14.37205845-18.46921216-0.52858994-0.56119069c-4.69210909-4.92263993-18.00582258-18.46804821-39.77930524-37.16895516-26.03596573-22.40103651-72.48901006-55.44023723-76.15421099-57.8864219l-64.9886208-39.24955022c-11.92820281-5.98098375-24.58176171-7.23492978-33.10556501-7.23492978-9.25148843 0-18.37024711 1.48680477-26.33286087 4.29391986-28.11539683 9.81267911-54.34929266 54.11876295-61.65058788 67.49884188-3.37179875 6.17891385-7.07076437 13.58033693-10.24346794 20.08874666l-1.02341519 2.0491594c-3.9644251 7.89624946-8.39340259 16.74954866-13.08434773 25.3734821-4.62690873 8.32587435-14.53622386 16.7844773-24.58176171 16.7844773-3.10401024 0-6.01125547-0.76028473-8.81837056-2.34605454-43.54812814-25.01138659-95.12057742-57.38810368-147.71993486-108.07219542-59.33829689-57.22393714-94.55938674-102.45447225-114.05201522-146.59406165-1.18874567-3.02367403-1.05717987-16.71811299 6.67373909-20.53467136 10.67192889-5.31966407 19.36106269-8.80439865 27.02561622-11.91073792l1.78486386-0.77658453c11.03518834-4.4767141 21.50802205-8.70659869 33.4350609-15.97412808 5.15316963-3.32056917 7.89624946-4.83997469 10.242304-6.16261404l1.18874568-0.70905515c4.29508494-2.32975474 8.32587435-4.56054329 20.68253696-12.88525369 0.52975389-0.38072434 2.77567943-2.23078969 5.15433472-4.26248419l7.92884906-7.17089337c20.71630165-19.97115278 27.52277049-49.36145351 17.31306724-74.80013596l-3.56739982-10.29120342c-0.0663643-0.26545949-13.21591353-30.85964061-34.29547464-67.21824654-10.242304-17.59366258-25.77167133-40.98667861-39.51617365-59.55369188-37.13519047-50.07167261-71.49586659-66.07956537-71.66119595-66.14360178-0.36326059-0.19909405-9.28408917-4.94010368-14.76791864-7.43402382-22.40103651-9.58214827-47.71048221-9.23635257-70.30828488 0.67645554-33.76572075 12.68732359-54.4820224 29.99922688-76.51863552 48.40323868l-4.82483882 4.12859051c-65.41824569 54.61475214-100.85240149 125.86378809-92.49392754 186.04387101 12.53945799 91.00828672 117.66947954 276.77156238 254.12253127 408.26937458 136.38668629 131.39651811 328.44297671 232.39794915 422.24324381 244.32615196 7.10336398 0.92561408 14.40582315 1.38783971 21.70711722 1.38783972 67.76313629 0 120.62795321-41.33247431 159.05201835-77.3464485 19.16080355-17.97322297 44.4690853-47.61151715 57.94812928-76.94826041C976.62416555 782.04193678 982.30709021 744.50855822 962.61420373 716.19290226M263.00560611 462.46623118c23.39185209 52.91255239 63.30388594 104.91695559 129.31708701 168.48513707 57.68499883 55.67076807 113.88668473 91.05718727 161.29794389 118.31449941 13.61177373 7.76235463 28.18176227 11.69417899 43.18253966 11.69417899 38.59055957 0 70.43868672-26.42949803 84.97723848-52.6307931 5.45239381-9.94540885 10.27373966-19.62535709 15.55963904-30.26352128l2.18188914-4.49184996c2.44501959-4.79223808 4.65718045-9.25265237 6.67373909-13.05291207 10.93505934-19.72432213 21.34385664-31.65136099 25.87063637-35.74851584 1.25627392-0.06520035 3.03880989-0.03143566 4.06339015 0.06869333l57.71992747 34.88926606 0.95705088 0.65899066c14.00646997 10.01060921 48.66636914 35.15472441 68.09496007 51.90543814 16.94747875 14.53738781 27.88370205 25.34204643 31.45110187 28.84424591 0.62988402 0.6578267 1.02574421 1.08861554 1.4239323 1.35174599l10.56947086 13.54773732c0.76028473 2.84087979 0 13.48020793-4.29391986 22.89586176-9.34928953 20.28784185-28.67891541 42.55498467-42.42225493 55.4414023-44.0732251 41.23234531-77.28008419 58.77594339-111.1110053 58.7759434-4.46041429 0-9.08732302-0.29805909-13.74566741-0.92561408-71.69612459-9.08499399-252.12227243-99.31786126-383.15669504-225.56004466C221.01297721 540.78719545 127.54569899 367.49584839 118.02991502 298.69183203c-5.02160498-36.27826973 21.80608227-84.77814443 68.32549092-123.63416348l4.98900423-4.11345465c20.22031246-16.9987072 33.60155534-28.21552583 58.08318692-37.46701425 4.2287195-1.78369991 7.63078997-2.69185024 10.4728337-2.69185024 2.0153947 0 4.16351915 0.42846094 6.0135845 1.20620942 2.44501959 1.15614493 6.54217443 3.28564053 9.05239438 4.64088064l2.18072519 1.10724437c0.23169479 0.11642994 22.26947186 11.64527957 47.57658852 45.80802446 12.62095815 16.91720704 26.43182592 37.76391054 35.28512625 53.02898233 9.71371406 16.85084274 19.39482738 35.4842203 28.74411578 55.40647254 0.36442453 0.74514887 0.66131968 1.38900366 0.92561408 1.90129379l3.03997382 9.13505849c0.23169479 0.54488974 0.29689515 0.84294997 0.36326059 0.84294997-0.13272974 0.16416541-0.49598919 0.54372579-1.12354417 1.15614493l-2.01539471 1.99792981c-0.85808583 0.81034923-1.78369991 1.68589881-2.31228985 2.2633893-8.75549923 5.78188971-11.76287346 7.43285987-14.86804764 9.23518862-3.03997383 1.65213411-6.74010453 3.68499371-14.07516331 8.32470926-6.80646883 4.16351915-13.64553842 6.93919858-23.35808739 10.85472313-9.61474901 3.86429497-20.12018233 8.19430855-33.07296541 14.58628836C255.73807673 375.27566791 249.52539819 432.0548443 263.00560611 462.46623118" fill="#6d3f2f" p-id="4852"></path></svg>